<?xml version="1.0" encoding="UTF-8" standalone="no"?>
<!DOCTYPE svg PUBLIC "-//W3C//DTD SVG 1.1//EN"
 "http://www.w3.org/Graphics/SVG/1.1/DTD/svg11.dtd">
<!-- Generated by graphviz version 2.43.0 (0)
 -->
<!-- Title: ecs_tick_order Pages: 1 -->
<svg width="224pt" height="1124pt"
 viewBox="0.00 0.00 224.00 1124.00" xmlns="http://www.w3.org/2000/svg" xmlns:xlink="http://www.w3.org/1999/xlink">
<g id="graph0" class="graph" transform="scale(1 1) rotate(0) translate(4 1120)">
<title>ecs_tick_order</title>
<polygon fill="white" stroke="transparent" points="-4,4 -4,-1120 220,-1120 220,4 -4,4"/>
<!-- move_request -->
<g id="node1" class="node">
<title>move_request</title>
<path fill="none" stroke="black" d="M75,-1116C75,-1116 27,-1116 27,-1116 21,-1116 15,-1110 15,-1104 15,-1104 15,-1092 15,-1092 15,-1086 21,-1080 27,-1080 27,-1080 75,-1080 75,-1080 81,-1080 87,-1086 87,-1092 87,-1092 87,-1104 87,-1104 87,-1110 81,-1116 75,-1116"/>
<text text-anchor="middle" x="51" y="-1094.9" font-family="Times,serif" font-size="12.00">移动请求</text>
</g>
<!-- move_resolve -->
<g id="node2" class="node">
<title>move_resolve</title>
<path fill="none" stroke="black" d="M90,-1044C90,-1044 12,-1044 12,-1044 6,-1044 0,-1038 0,-1032 0,-1032 0,-1020 0,-1020 0,-1014 6,-1008 12,-1008 12,-1008 90,-1008 90,-1008 96,-1008 102,-1014 102,-1020 102,-1020 102,-1032 102,-1032 102,-1038 96,-1044 90,-1044"/>
<text text-anchor="middle" x="51" y="-1022.9" font-family="Times,serif" font-size="12.00">move_resolve</text>
</g>
<!-- move_request&#45;&gt;move_resolve -->
<g id="edge1" class="edge">
<title>move_request&#45;&gt;move_resolve</title>
<path fill="none" stroke="black" d="M51,-1079.7C51,-1071.98 51,-1062.71 51,-1054.11"/>
<polygon fill="black" stroke="black" points="54.5,-1054.1 51,-1044.1 47.5,-1054.1 54.5,-1054.1"/>
</g>
<!-- ai -->
<g id="node4" class="node">
<title>ai</title>
<path fill="none" stroke="black" d="M140.5,-972C140.5,-972 77.5,-972 77.5,-972 71.5,-972 65.5,-966 65.5,-960 65.5,-960 65.5,-948 65.5,-948 65.5,-942 71.5,-936 77.5,-936 77.5,-936 140.5,-936 140.5,-936 146.5,-936 152.5,-942 152.5,-948 152.5,-948 152.5,-960 152.5,-960 152.5,-966 146.5,-972 140.5,-972"/>
<text text-anchor="middle" x="109" y="-950.9" font-family="Times,serif" font-size="12.00">monster_ai</text>
</g>
<!-- move_resolve&#45;&gt;ai -->
<g id="edge2" class="edge">
<title>move_resolve&#45;&gt;ai</title>
<path fill="none" stroke="black" d="M65.34,-1007.7C72.29,-999.3 80.77,-989.07 88.4,-979.86"/>
<polygon fill="black" stroke="black" points="91.14,-982.04 94.83,-972.1 85.75,-977.57 91.14,-982.04"/>
</g>
<!-- status -->
<g id="node3" class="node">
<title>status</title>
<path fill="none" stroke="black" d="M204,-1044C204,-1044 132,-1044 132,-1044 126,-1044 120,-1038 120,-1032 120,-1032 120,-1020 120,-1020 120,-1014 126,-1008 132,-1008 132,-1008 204,-1008 204,-1008 210,-1008 216,-1014 216,-1020 216,-1020 216,-1032 216,-1032 216,-1038 210,-1044 204,-1044"/>
<text text-anchor="middle" x="168" y="-1022.9" font-family="Times,serif" font-size="12.00">status_effect</text>
</g>
<!-- status&#45;&gt;ai -->
<g id="edge16" class="edge">
<title>status&#45;&gt;ai</title>
<path fill="none" stroke="black" d="M153.42,-1007.7C146.34,-999.3 137.72,-989.07 129.95,-979.86"/>
<polygon fill="black" stroke="black" points="132.54,-977.49 123.42,-972.1 127.19,-982.01 132.54,-977.49"/>
</g>
<!-- dash_resolve -->
<g id="node5" class="node">
<title>dash_resolve</title>
<path fill="none" stroke="black" d="M146.5,-900C146.5,-900 71.5,-900 71.5,-900 65.5,-900 59.5,-894 59.5,-888 59.5,-888 59.5,-876 59.5,-876 59.5,-870 65.5,-864 71.5,-864 71.5,-864 146.5,-864 146.5,-864 152.5,-864 158.5,-870 158.5,-876 158.5,-876 158.5,-888 158.5,-888 158.5,-894 152.5,-900 146.5,-900"/>
<text text-anchor="middle" x="109" y="-878.9" font-family="Times,serif" font-size="12.00">dash_resolve</text>
</g>
<!-- ai&#45;&gt;dash_resolve -->
<g id="edge3" class="edge">
<title>ai&#45;&gt;dash_resolve</title>
<path fill="none" stroke="black" d="M109,-935.7C109,-927.98 109,-918.71 109,-910.11"/>
<polygon fill="black" stroke="black" points="112.5,-910.1 109,-900.1 105.5,-910.1 112.5,-910.1"/>
</g>
<!-- dash -->
<g id="node6" class="node">
<title>dash</title>
<path fill="none" stroke="black" d="M124,-828C124,-828 94,-828 94,-828 88,-828 82,-822 82,-816 82,-816 82,-804 82,-804 82,-798 88,-792 94,-792 94,-792 124,-792 124,-792 130,-792 136,-798 136,-804 136,-804 136,-816 136,-816 136,-822 130,-828 124,-828"/>
<text text-anchor="middle" x="109" y="-806.9" font-family="Times,serif" font-size="12.00">dash</text>
</g>
<!-- dash_resolve&#45;&gt;dash -->
<g id="edge4" class="edge">
<title>dash_resolve&#45;&gt;dash</title>
<path fill="none" stroke="black" d="M109,-863.7C109,-855.98 109,-846.71 109,-838.11"/>
<polygon fill="black" stroke="black" points="112.5,-838.1 109,-828.1 105.5,-838.1 112.5,-838.1"/>
</g>
<!-- move -->
<g id="node7" class="node">
<title>move</title>
<path fill="none" stroke="black" d="M124,-756C124,-756 94,-756 94,-756 88,-756 82,-750 82,-744 82,-744 82,-732 82,-732 82,-726 88,-720 94,-720 94,-720 124,-720 124,-720 130,-720 136,-726 136,-732 136,-732 136,-744 136,-744 136,-750 130,-756 124,-756"/>
<text text-anchor="middle" x="109" y="-734.9" font-family="Times,serif" font-size="12.00">move</text>
</g>
<!-- dash&#45;&gt;move -->
<g id="edge5" class="edge">
<title>dash&#45;&gt;move</title>
<path fill="none" stroke="black" d="M109,-791.7C109,-783.98 109,-774.71 109,-766.11"/>
<polygon fill="black" stroke="black" points="112.5,-766.1 109,-756.1 105.5,-766.1 112.5,-766.1"/>
</g>
<!-- projectile_hit -->
<g id="node8" class="node">
<title>projectile_hit</title>
<path fill="none" stroke="black" d="M146.5,-684C146.5,-684 71.5,-684 71.5,-684 65.5,-684 59.5,-678 59.5,-672 59.5,-672 59.5,-660 59.5,-660 59.5,-654 65.5,-648 71.5,-648 71.5,-648 146.5,-648 146.5,-648 152.5,-648 158.5,-654 158.5,-660 158.5,-660 158.5,-672 158.5,-672 158.5,-678 152.5,-684 146.5,-684"/>
<text text-anchor="middle" x="109" y="-662.9" font-family="Times,serif" font-size="12.00">projectile_hit</text>
</g>
<!-- move&#45;&gt;projectile_hit -->
<g id="edge6" class="edge">
<title>move&#45;&gt;projectile_hit</title>
<path fill="none" stroke="black" d="M109,-719.7C109,-711.98 109,-702.71 109,-694.11"/>
<polygon fill="black" stroke="black" points="112.5,-694.1 109,-684.1 105.5,-694.1 112.5,-694.1"/>
</g>
<!-- projectile_range -->
<g id="node9" class="node">
<title>projectile_range</title>
<path fill="none" stroke="black" d="M156.5,-612C156.5,-612 61.5,-612 61.5,-612 55.5,-612 49.5,-606 49.5,-600 49.5,-600 49.5,-588 49.5,-588 49.5,-582 55.5,-576 61.5,-576 61.5,-576 156.5,-576 156.5,-576 162.5,-576 168.5,-582 168.5,-588 168.5,-588 168.5,-600 168.5,-600 168.5,-606 162.5,-612 156.5,-612"/>
<text text-anchor="middle" x="109" y="-590.9" font-family="Times,serif" font-size="12.00">projectile_range</text>
</g>
<!-- projectile_hit&#45;&gt;projectile_range -->
<g id="edge7" class="edge">
<title>projectile_hit&#45;&gt;projectile_range</title>
<path fill="none" stroke="black" d="M109,-647.7C109,-639.98 109,-630.71 109,-622.11"/>
<polygon fill="black" stroke="black" points="112.5,-622.1 109,-612.1 105.5,-622.1 112.5,-622.1"/>
</g>
<!-- attack -->
<g id="node10" class="node">
<title>attack</title>
<path fill="none" stroke="black" d="M151,-540C151,-540 67,-540 67,-540 61,-540 55,-534 55,-528 55,-528 55,-516 55,-516 55,-510 61,-504 67,-504 67,-504 151,-504 151,-504 157,-504 163,-510 163,-516 163,-516 163,-528 163,-528 163,-534 157,-540 151,-540"/>
<text text-anchor="middle" x="109" y="-518.9" font-family="Times,serif" font-size="12.00">attack_resolve</text>
</g>
<!-- projectile_range&#45;&gt;attack -->
<g id="edge8" class="edge">
<title>projectile_range&#45;&gt;attack</title>
<path fill="none" stroke="black" d="M109,-575.7C109,-567.98 109,-558.71 109,-550.11"/>
<polygon fill="black" stroke="black" points="112.5,-550.1 109,-540.1 105.5,-550.1 112.5,-550.1"/>
</g>
<!-- projectile_spawn -->
<g id="node11" class="node">
<title>projectile_spawn</title>
<path fill="none" stroke="black" d="M158.5,-468C158.5,-468 59.5,-468 59.5,-468 53.5,-468 47.5,-462 47.5,-456 47.5,-456 47.5,-444 47.5,-444 47.5,-438 53.5,-432 59.5,-432 59.5,-432 158.5,-432 158.5,-432 164.5,-432 170.5,-438 170.5,-444 170.5,-444 170.5,-456 170.5,-456 170.5,-462 164.5,-468 158.5,-468"/>
<text text-anchor="middle" x="109" y="-446.9" font-family="Times,serif" font-size="12.00">projectile_spawn</text>
</g>
<!-- attack&#45;&gt;projectile_spawn -->
<g id="edge9" class="edge">
<title>attack&#45;&gt;projectile_spawn</title>
<path fill="none" stroke="black" d="M109,-503.7C109,-495.98 109,-486.71 109,-478.11"/>
<polygon fill="black" stroke="black" points="112.5,-478.1 109,-468.1 105.5,-478.1 112.5,-478.1"/>
</g>
<!-- hit -->
<g id="node12" class="node">
<title>hit</title>
<path fill="none" stroke="black" d="M140,-396C140,-396 78,-396 78,-396 72,-396 66,-390 66,-384 66,-384 66,-372 66,-372 66,-366 72,-360 78,-360 78,-360 140,-360 140,-360 146,-360 152,-366 152,-372 152,-372 152,-384 152,-384 152,-390 146,-396 140,-396"/>
<text text-anchor="middle" x="109" y="-374.9" font-family="Times,serif" font-size="12.00">hit_resolve</text>
</g>
<!-- projectile_spawn&#45;&gt;hit -->
<g id="edge10" class="edge">
<title>projectile_spawn&#45;&gt;hit</title>
<path fill="none" stroke="black" d="M109,-431.7C109,-423.98 109,-414.71 109,-406.11"/>
<polygon fill="black" stroke="black" points="112.5,-406.1 109,-396.1 105.5,-406.1 112.5,-406.1"/>
</g>
<!-- damage_modify -->
<g id="node13" class="node">
<title>damage_modify</title>
<path fill="none" stroke="black" d="M155,-324C155,-324 63,-324 63,-324 57,-324 51,-318 51,-312 51,-312 51,-300 51,-300 51,-294 57,-288 63,-288 63,-288 155,-288 155,-288 161,-288 167,-294 167,-300 167,-300 167,-312 167,-312 167,-318 161,-324 155,-324"/>
<text text-anchor="middle" x="109" y="-302.9" font-family="Times,serif" font-size="12.00">damage_modify</text>
</g>
<!-- hit&#45;&gt;damage_modify -->
<g id="edge11" class="edge">
<title>hit&#45;&gt;damage_modify</title>
<path fill="none" stroke="black" d="M109,-359.7C109,-351.98 109,-342.71 109,-334.11"/>
<polygon fill="black" stroke="black" points="112.5,-334.1 109,-324.1 105.5,-334.1 112.5,-334.1"/>
</g>
<!-- pre_damage -->
<g id="node14" class="node">
<title>pre_damage</title>
<path fill="none" stroke="black" d="M172,-252C172,-252 46,-252 46,-252 40,-252 34,-246 34,-240 34,-240 34,-228 34,-228 34,-222 40,-216 46,-216 46,-216 172,-216 172,-216 178,-216 184,-222 184,-228 184,-228 184,-240 184,-240 184,-246 178,-252 172,-252"/>
<text text-anchor="middle" x="109" y="-230.9" font-family="Times,serif" font-size="12.00">pre_damage_blessing</text>
</g>
<!-- damage_modify&#45;&gt;pre_damage -->
<g id="edge12" class="edge">
<title>damage_modify&#45;&gt;pre_damage</title>
<path fill="none" stroke="black" d="M109,-287.7C109,-279.98 109,-270.71 109,-262.11"/>
<polygon fill="black" stroke="black" points="112.5,-262.1 109,-252.1 105.5,-262.1 112.5,-262.1"/>
</g>
<!-- damage -->
<g id="node15" class="node">
<title>damage</title>
<path fill="none" stroke="black" d="M131.5,-180C131.5,-180 86.5,-180 86.5,-180 80.5,-180 74.5,-174 74.5,-168 74.5,-168 74.5,-156 74.5,-156 74.5,-150 80.5,-144 86.5,-144 86.5,-144 131.5,-144 131.5,-144 137.5,-144 143.5,-150 143.5,-156 143.5,-156 143.5,-168 143.5,-168 143.5,-174 137.5,-180 131.5,-180"/>
<text text-anchor="middle" x="109" y="-158.9" font-family="Times,serif" font-size="12.00">damage</text>
</g>
<!-- pre_damage&#45;&gt;damage -->
<g id="edge13" class="edge">
<title>pre_damage&#45;&gt;damage</title>
<path fill="none" stroke="black" d="M109,-215.7C109,-207.98 109,-198.71 109,-190.11"/>
<polygon fill="black" stroke="black" points="112.5,-190.1 109,-180.1 105.5,-190.1 112.5,-190.1"/>
</g>
<!-- blessing -->
<g id="node16" class="node">
<title>blessing</title>
<path fill="none" stroke="black" d="M155.5,-108C155.5,-108 62.5,-108 62.5,-108 56.5,-108 50.5,-102 50.5,-96 50.5,-96 50.5,-84 50.5,-84 50.5,-78 56.5,-72 62.5,-72 62.5,-72 155.5,-72 155.5,-72 161.5,-72 167.5,-78 167.5,-84 167.5,-84 167.5,-96 167.5,-96 167.5,-102 161.5,-108 155.5,-108"/>
<text text-anchor="middle" x="109" y="-86.9" font-family="Times,serif" font-size="12.00">blessing_trigger</text>
</g>
<!-- damage&#45;&gt;blessing -->
<g id="edge14" class="edge">
<title>damage&#45;&gt;blessing</title>
<path fill="none" stroke="black" d="M109,-143.7C109,-135.98 109,-126.71 109,-118.11"/>
<polygon fill="black" stroke="black" points="112.5,-118.1 109,-108.1 105.5,-118.1 112.5,-118.1"/>
</g>
<!-- death -->
<g id="node17" class="node">
<title>death</title>
<path fill="none" stroke="black" d="M124,-36C124,-36 94,-36 94,-36 88,-36 82,-30 82,-24 82,-24 82,-12 82,-12 82,-6 88,0 94,0 94,0 124,0 124,0 130,0 136,-6 136,-12 136,-12 136,-24 136,-24 136,-30 130,-36 124,-36"/>
<text text-anchor="middle" x="109" y="-14.9" font-family="Times,serif" font-size="12.00">death</text>
</g>
<!-- blessing&#45;&gt;death -->
<g id="edge15" class="edge">
<title>blessing&#45;&gt;death</title>
<path fill="none" stroke="black" d="M109,-71.7C109,-63.98 109,-54.71 109,-46.11"/>
<polygon fill="black" stroke="black" points="112.5,-46.1 109,-36.1 105.5,-46.1 112.5,-46.1"/>
</g>
</g>
</svg>
